<mxfile host="app.diagrams.net" modified="2023-11-17T13:44:52.400Z" agent="Mozilla/5.0 (Windows NT 10.0; Win64; x64) AppleWebKit/537.36 (KHTML, like Gecko) Chrome/119.0.0.0 Safari/537.36" etag="fxZ5b7bNgbVDSfZz7ZAp" version="22.1.3" type="github">
  <diagram name="Страница — 1" id="zLGoSjwwh6XfE-Gli_0L">
    <mxGraphModel dx="1050" dy="534" grid="1" gridSize="10" guides="1" tooltips="1" connect="1" arrows="1" fold="1" page="1" pageScale="1" pageWidth="827" pageHeight="1169" math="0" shadow="0">
      <root>
        <mxCell id="0" />
        <mxCell id="1" parent="0" />
        <mxCell id="1jXouG3bxr-V0uMygCET-1" value="Главный модуль" style="rounded=0;whiteSpace=wrap;html=1;" vertex="1" parent="1">
          <mxGeometry x="80" width="120" height="60" as="geometry" />
        </mxCell>
        <mxCell id="1jXouG3bxr-V0uMygCET-2" value="Модуль обработки документов" style="rounded=0;whiteSpace=wrap;html=1;" vertex="1" parent="1">
          <mxGeometry x="40" y="120" width="120" height="60" as="geometry" />
        </mxCell>
        <mxCell id="1jXouG3bxr-V0uMygCET-3" value="Модуль администрирования" style="rounded=0;whiteSpace=wrap;html=1;" vertex="1" parent="1">
          <mxGeometry x="260" y="120" width="120" height="60" as="geometry" />
        </mxCell>
        <mxCell id="1jXouG3bxr-V0uMygCET-4" value="Модуль пользователей" style="rounded=0;whiteSpace=wrap;html=1;" vertex="1" parent="1">
          <mxGeometry x="430" y="120" width="120" height="60" as="geometry" />
        </mxCell>
        <mxCell id="1jXouG3bxr-V0uMygCET-5" value="Модуль тех. поддержки" style="rounded=0;whiteSpace=wrap;html=1;" vertex="1" parent="1">
          <mxGeometry x="620" y="120" width="120" height="60" as="geometry" />
        </mxCell>
        <mxCell id="1jXouG3bxr-V0uMygCET-6" style="edgeStyle=orthogonalEdgeStyle;rounded=0;orthogonalLoop=1;jettySize=auto;html=1;entryX=0.67;entryY=-0.007;entryDx=0;entryDy=0;entryPerimeter=0;" edge="1" parent="1" source="1jXouG3bxr-V0uMygCET-1" target="1jXouG3bxr-V0uMygCET-5">
          <mxGeometry relative="1" as="geometry" />
        </mxCell>
        <mxCell id="1jXouG3bxr-V0uMygCET-7" style="edgeStyle=orthogonalEdgeStyle;rounded=0;orthogonalLoop=1;jettySize=auto;html=1;entryX=0.593;entryY=-0.033;entryDx=0;entryDy=0;entryPerimeter=0;" edge="1" parent="1" source="1jXouG3bxr-V0uMygCET-1" target="1jXouG3bxr-V0uMygCET-4">
          <mxGeometry relative="1" as="geometry" />
        </mxCell>
        <mxCell id="1jXouG3bxr-V0uMygCET-8" style="edgeStyle=orthogonalEdgeStyle;rounded=0;orthogonalLoop=1;jettySize=auto;html=1;entryX=0.657;entryY=-0.033;entryDx=0;entryDy=0;entryPerimeter=0;" edge="1" parent="1" source="1jXouG3bxr-V0uMygCET-1" target="1jXouG3bxr-V0uMygCET-3">
          <mxGeometry relative="1" as="geometry" />
        </mxCell>
        <mxCell id="1jXouG3bxr-V0uMygCET-11" style="edgeStyle=orthogonalEdgeStyle;rounded=0;orthogonalLoop=1;jettySize=auto;html=1;entryX=0.83;entryY=-0.033;entryDx=0;entryDy=0;entryPerimeter=0;" edge="1" parent="1" source="1jXouG3bxr-V0uMygCET-1" target="1jXouG3bxr-V0uMygCET-2">
          <mxGeometry relative="1" as="geometry" />
        </mxCell>
        <mxCell id="1jXouG3bxr-V0uMygCET-12" value="CRUD документов" style="rounded=0;whiteSpace=wrap;html=1;" vertex="1" parent="1">
          <mxGeometry x="90" y="200" width="120" height="30" as="geometry" />
        </mxCell>
      </root>
    </mxGraphModel>
  </diagram>
</mxfile>
